# Blender v2.70 (sub 0) OBJ File: ''
# www.blender.org
mtllib s3.mtl
o Cylinder.006
v 0.696835 -2.178629 2.013854
v 0.696835 -2.178632 2.248856
v 3.030978 -2.178632 2.248856
v 3.030978 -2.178629 2.013854
v 0.696835 -3.524101 2.825560
v 0.696835 -3.524101 3.060560
v 3.030978 -3.524101 3.060560
v 3.030978 -3.524101 2.825560
v 0.696835 -2.178629 3.637265
v 0.696835 -2.178633 3.872267
v 3.030978 -2.178633 3.872267
v 3.030978 -2.178629 3.637265
v 0.696835 -3.524103 4.448972
v 0.696835 -3.524103 4.683970
v 3.030978 -3.524103 4.683970
v 3.030978 -3.524103 4.448972
v 0.696835 -2.178633 5.260674
v 0.696835 -2.178633 5.495677
v 3.030978 -2.178633 5.495677
v 3.030978 -2.178633 5.260674
v 0.696835 -3.524103 6.072381
v 0.696835 -3.524103 6.307384
v 3.030978 -3.524103 6.307384
v 3.030978 -3.524103 6.072381
v 0.696835 -2.178633 6.884089
v 0.696835 -2.178633 7.119090
v 3.030978 -2.178633 7.119090
v 3.030978 -2.178633 6.884089
v 0.696835 -3.524103 7.695795
v 0.696835 -3.524103 7.930796
v 3.030978 -3.524103 7.930796
v 3.030978 -3.524103 7.695795
v 0.696835 -2.178634 8.507500
v 0.696835 -2.178634 8.742502
v 3.030978 -2.178634 8.742502
v 3.030978 -2.178634 8.507500
v 0.696835 -3.524104 9.319202
v 0.696835 -3.524107 9.554203
v 3.030978 -3.524107 9.554203
v 3.030978 -3.524104 9.319202
v 0.696835 -2.178637 10.130915
v 0.696835 -2.178637 10.365915
v 3.030978 -2.178637 10.365915
v 3.030978 -2.178637 10.130915
v 0.696835 -3.524107 10.942616
v 0.696835 -3.524107 11.177616
v 3.030978 -3.524107 11.177616
v 3.030978 -3.524107 10.942616
v 0.696835 -2.178637 11.754324
v 0.696835 -2.178637 11.989326
v 3.030978 -2.178637 11.989326
v 3.030978 -2.178637 11.754324
v 0.696835 -3.524107 12.566031
v 0.696835 -3.524107 12.801029
v 3.030978 -3.524107 12.801029
v 3.030978 -3.524107 12.566031
v 0.696835 -2.178637 13.377737
v 0.696835 -2.178637 13.612738
v 3.030978 -2.178637 13.612738
v 3.030978 -2.178637 13.377737
v 0.318509 -0.832046 14.801252
v -0.010312 -0.832047 15.098603
v 0.378688 -0.143557 15.098604
v 0.543098 -0.434547 14.801252
v -0.130669 -0.832049 15.504793
v 0.318509 -0.037050 15.504793
v -0.010312 -0.832050 15.910982
v 0.378688 -0.143560 15.910983
v 0.318509 -0.832050 16.208334
v 0.543098 -0.434551 16.208334
v 1.156686 -0.143557 15.098604
v 0.992276 -0.434547 14.801252
v 1.216865 -0.037050 15.504793
v 1.156687 -0.143560 15.910983
v 0.992276 -0.434551 16.208334
v 1.545686 -0.832047 15.098603
v 1.216865 -0.832047 14.801252
v 1.666043 -0.832049 15.504793
v 1.545686 -0.832050 15.910982
v 1.216865 -0.832051 16.208334
v 1.156686 -1.520540 15.098603
v 0.992276 -1.229547 14.801252
v 1.216865 -1.627048 15.504793
v 1.156686 -1.520540 15.910982
v 0.992276 -1.229550 16.208334
v 0.378687 -1.520540 15.098603
v 0.543098 -1.229546 14.801252
v 0.318509 -1.627048 15.504793
v 0.378687 -1.520540 15.910982
v 0.543098 -1.229550 16.208334
v 0.767687 -0.832046 14.692414
v 0.767687 -0.832051 16.317173
v 0.268835 -0.791925 14.300089
v 0.268826 -0.791926 0.370091
v 0.513826 -1.216279 0.370091
v 0.513835 -1.216278 14.300089
v 1.003826 -1.216279 0.370091
v 1.003835 -1.216278 14.300091
v 1.248826 -0.791926 0.370091
v 1.248835 -0.791925 14.300089
v 1.003826 -0.367574 0.370091
v 1.003835 -0.367573 14.300089
v 0.513835 -0.367573 14.300089
v 0.513826 -0.367574 0.370091
v 0.456740 -0.791926 14.300089
v 0.607787 -0.530303 14.300091
v 0.456740 -0.791926 14.920179
v 0.607788 -0.530304 14.920180
v 0.909882 -0.530303 14.300089
v 1.060930 -0.791925 14.300089
v 0.909882 -1.053548 14.300091
v 0.607787 -1.053548 14.300091
v 0.909883 -0.530304 14.920179
v 1.060930 -0.791926 14.920179
v 0.909883 -1.053548 14.920180
v 0.607788 -1.053548 14.920180
v 1.308879 -0.789569 13.078185
v 0.211399 -0.789569 13.078183
v 0.211399 -1.434731 12.705699
v 1.308880 -1.434730 12.705701
v 0.211400 -1.434731 11.960732
v 1.308881 -1.434730 11.960733
v 0.211400 -0.789569 11.588247
v 1.308881 -0.789569 11.588248
v 0.211400 -0.144408 11.960732
v 1.308880 -0.144408 11.960733
v 1.308879 -0.144408 12.705701
v 0.211399 -0.144408 12.705699
v 1.308879 -0.789569 12.828692
v 1.308879 -0.360474 12.580955
v 0.211399 -0.789569 12.828691
v 0.211399 -0.360475 12.580954
v 1.308880 -0.360474 12.085479
v 1.308881 -0.789569 11.837742
v 1.308881 -1.218663 12.085479
v 1.308880 -1.218663 12.580955
v 0.211399 -0.360475 12.085479
v 0.211400 -0.789569 11.837740
v 0.211400 -1.218664 12.085478
v 0.211399 -1.218664 12.580954
v 1.308879 -0.789561 1.466723
v 0.211399 -0.789561 1.466723
v 0.211399 -1.434723 1.094238
v 1.308880 -1.434722 1.094239
v 0.211400 -1.434723 0.349270
v 1.308881 -1.434722 0.349271
v 0.211400 -0.789561 -0.023214
v 1.308881 -0.789561 -0.023213
v 0.211400 -0.144400 0.349270
v 1.308880 -0.144400 0.349272
v 1.308879 -0.144400 1.094239
v 0.211399 -0.144400 1.094238
v 1.308879 -0.789561 1.217231
v 1.308879 -0.360466 0.969493
v 0.211399 -0.789561 1.217230
v 0.211399 -0.360467 0.969492
v 1.308880 -0.360466 0.474018
v 1.308881 -0.789561 0.226280
v 1.308881 -1.218655 0.474018
v 1.308880 -1.218655 0.969493
v 0.211399 -0.360467 0.474017
v 0.211400 -0.789561 0.226279
v 0.211400 -1.218656 0.474017
v 0.211399 -1.218656 0.969492
v 0.696835 -1.512738 2.013854
v 0.696835 -1.512738 1.608001
v 0.696835 -1.136770 1.608001
v 0.696835 -1.136771 2.013855
v 0.696835 -1.512738 2.248856
v 0.696835 -1.136771 2.248856
v 0.696835 -1.512739 2.825560
v 0.696835 -1.136771 2.825560
v 0.696835 -1.512738 3.060562
v 0.696835 -1.136771 3.060562
v 0.696835 -1.512742 3.637265
v 0.696835 -1.136774 3.637265
v 0.696835 -1.512742 3.872267
v 0.696835 -1.136774 3.872267
v 0.696835 -1.512742 4.448972
v 0.696835 -1.136774 4.448973
v 0.696835 -1.512742 4.683969
v 0.696835 -1.136774 4.683973
v 0.696835 -1.512742 5.260674
v 0.696835 -1.136774 5.260678
v 0.696835 -1.512742 5.495677
v 0.696835 -1.136774 5.495679
v 0.696835 -1.512742 6.072381
v 0.696835 -1.136774 6.072384
v 0.696835 -1.512742 6.307384
v 0.696835 -1.136774 6.307385
v 0.696835 -1.512742 6.884089
v 0.696835 -1.136774 6.884089
v 0.696835 -1.512742 7.119090
v 0.696835 -1.136775 7.119092
v 0.696835 -1.512742 7.695795
v 0.696835 -1.136775 7.695796
v 0.696835 -1.512742 7.930796
v 0.696835 -1.136775 7.930798
v 0.696835 -1.512743 8.507500
v 0.696835 -1.136775 8.507500
v 0.696835 -1.512742 8.742502
v 0.696835 -1.136775 8.742502
v 0.696835 -1.512745 9.319206
v 0.696835 -1.136777 9.319206
v 0.696835 -1.512745 9.554207
v 0.696835 -1.136777 9.554207
v 0.696835 -1.512746 10.130915
v 0.696835 -1.136778 10.130915
v 0.696835 -1.512746 10.365915
v 0.696835 -1.136778 10.365915
v 0.696835 -1.512746 10.942619
v 0.696835 -1.136778 10.942619
v 0.696835 -1.512746 11.177620
v 0.696835 -1.136778 11.177620
v 0.696835 -1.512746 11.754324
v 0.696835 -1.136778 11.754326
v 0.696835 -1.512746 11.989326
v 0.696835 -1.136778 11.989328
v 0.696835 -1.512746 12.566032
v 0.696835 -1.136778 12.566032
v 0.696835 -1.512746 12.801033
v 0.696835 -1.136778 12.801033
v 0.696835 -1.512746 13.377737
v 0.696835 -1.136778 13.377737
v 0.696835 -1.512746 13.612738
v 0.696835 -1.136779 13.612738
v 0.696835 -1.512746 14.189444
v 0.696835 -1.136779 14.189444
v 3.061682 -2.013670 2.325379
v 3.061677 -2.013670 1.937338
v 3.061682 -3.359143 3.137084
v 3.061679 -3.359143 2.749043
v 3.061683 -2.013673 3.948789
v 3.061677 -2.013669 3.560749
v 3.061677 -3.359144 4.760494
v 3.061685 -3.359145 4.372448
v 3.061682 -2.013673 5.572196
v 3.061677 -2.013674 5.184160
v 3.061682 -3.359145 6.383904
v 3.061677 -3.359145 5.995862
v 3.061685 -2.013673 7.195611
v 3.061677 -2.013673 6.807570
v 3.061676 -3.359144 8.007311
v 3.061687 -3.359145 7.619275
v 3.061682 -2.013674 8.819023
v 3.061679 -2.013676 8.430984
v 3.061678 -3.359148 9.630724
v 3.061682 -3.359146 9.242685
v 3.061679 -2.013677 10.442434
v 3.061683 -2.013678 10.054396
v 3.061677 -3.359148 11.254137
v 3.061682 -3.359149 10.866098
v 3.061677 -2.013677 12.065845
v 3.061685 -2.013678 11.677807
v 3.061676 -3.359148 12.877546
v 3.061685 -3.359149 12.489506
v 3.061682 -2.013677 13.689259
v 3.061679 -2.013678 13.301220
v 3.091929 -1.851175 2.283269
v 3.091924 -1.851148 1.979454
v 3.091929 -3.196645 3.094975
v 3.091929 -3.196620 2.791157
v 3.091929 -1.851192 3.906676
v 3.091924 -1.851139 3.602862
v 3.091929 -3.196600 4.718380
v 3.091929 -3.196669 4.414567
v 3.091929 -1.851180 5.530087
v 3.091924 -1.851150 5.226274
v 3.091924 -3.196679 6.341785
v 3.091929 -3.196591 6.037972
v 3.091929 -1.851194 7.153499
v 3.091924 -1.851137 6.849687
v 3.091929 -3.196570 7.965209
v 3.091929 -3.196701 7.661395
v 3.091929 -1.851179 8.776909
v 3.091929 -1.851153 8.473098
v 3.091929 -3.196619 9.588614
v 3.091929 -3.196658 9.284801
v 3.091929 -1.851151 10.400324
v 3.091929 -1.851189 10.096512
v 3.091924 -3.196620 11.212029
v 3.091929 -3.196658 10.908216
v 3.091929 -1.851134 12.023737
v 3.091929 -1.851206 11.719923
v 3.091924 -3.196605 12.835434
v 3.091929 -3.196673 12.531622
v 3.091929 -1.851183 13.647144
v 3.091929 -1.851156 13.343332
vt 0.247125 0.386170
vt 0.870805 0.386170
vt 0.247125 0.026662
vt 0.870805 0.026662
vt 0.247125 0.026661
vt 0.870805 0.026661
vt 0.146037 0.745977
vt 0.058177 0.745977
vt 0.162117 0.929940
vt 0.206047 0.852188
vt 0.026017 0.745977
vt 0.146037 0.958400
vt 0.369997 0.929940
vt 0.326067 0.852188
vt 0.386077 0.958400
vt 0.473937 0.745977
vt 0.386077 0.745977
vt 0.506096 0.745977
vt 0.369997 0.562013
vt 0.326067 0.639765
vt 0.386077 0.533554
vt 0.162117 0.562013
vt 0.206047 0.639765
vt 0.146037 0.533554
vt 0.266057 0.745977
vt 0.132764 0.756697
vt 0.132762 0.756695
vt 0.198226 0.643309
vt 0.198228 0.643310
vt 0.329153 0.643309
vt 0.329155 0.643310
vt 0.394617 0.756695
vt 0.394619 0.756697
vt 0.329153 0.870081
vt 0.329155 0.870084
vt 0.198228 0.870084
vt 0.198226 0.870081
vt 0.182972 0.756697
vt 0.223332 0.826602
vt 0.304051 0.826602
vt 0.344411 0.756697
vt 0.304051 0.686792
vt 0.223332 0.686792
vt 0.410662 0.757327
vt 0.117417 0.757327
vt 0.117417 0.584940
vt 0.410663 0.584940
vt 0.117418 0.584940
vt 0.117418 0.757327
vt 0.410663 0.757327
vt 0.117418 0.929713
vt 0.410663 0.929713
vt 0.410662 0.929713
vt 0.117417 0.929713
vt 0.410662 0.871980
vt 0.117417 0.871980
vt 0.410663 0.871980
vt 0.410663 0.642673
vt 0.117418 0.642673
vt 0.117417 0.642673
vt 0.247125 0.564095
vt 0.247125 0.664553
vt 0.879009 0.430247
vt 0.879008 0.430247
vt 0.879009 0.070738
vt 0.879010 0.430247
vt 0.879008 0.070738
vt 0.879010 0.070738
vt 0.879008 0.430246
vt 0.879007 0.070738
vt 0.879011 0.070738
vt 0.879009 0.430246
vt 0.879010 0.430246
vt 0.887091 0.473665
vt 0.887090 0.473672
vt 0.887091 0.114157
vt 0.887091 0.114164
vt 0.887091 0.473661
vt 0.887090 0.473676
vt 0.887091 0.114170
vt 0.887091 0.114152
vt 0.887090 0.114149
vt 0.887091 0.114173
vt 0.887091 0.114178
vt 0.887091 0.114143
vt 0.887091 0.473672
vt 0.887091 0.114166
vt 0.887091 0.114155
vt 0.887091 0.473673
vt 0.887091 0.473663
vt 0.887090 0.114166
vt 0.887091 0.114156
vt 0.887091 0.473678
vt 0.887091 0.473659
vt 0.887090 0.114170
vt 0.887091 0.114151
vn 0.000000 1.000000 0.000014
vn 0.000000 1.000000 0.000000
vn 0.000000 1.000000 0.000015
vn 0.000000 1.000000 0.000010
vn -0.525163 0.000000 -0.850978
vn -0.867458 0.000000 -0.497452
vn -0.436171 0.747154 -0.501480
vn -0.264473 0.449263 -0.853328
vn -1.000000 0.000000 0.000000
vn -0.503037 0.864254 0.000000
vn -0.867458 0.000000 0.497452
vn -0.436171 0.747154 0.501480
vn -0.525163 0.000000 0.850978
vn -0.264473 0.449263 0.853328
vn 0.436171 0.747154 -0.501480
vn 0.264473 0.449263 -0.853328
vn 0.503037 0.864254 0.000000
vn 0.436171 0.747154 0.501480
vn 0.264473 0.449263 0.853328
vn 0.867458 0.000000 -0.497452
vn 0.525163 0.000000 -0.850978
vn 1.000000 0.000000 0.000000
vn 0.867458 0.000000 0.497452
vn 0.525163 0.000000 0.850978
vn 0.436171 -0.747154 -0.501480
vn 0.264473 -0.449263 -0.853328
vn 0.503037 -0.864254 0.000000
vn 0.436171 -0.747154 0.501480
vn 0.264473 -0.449263 0.853328
vn -0.436171 -0.747154 -0.501480
vn -0.264473 -0.449263 -0.853328
vn -0.503037 -0.864254 0.000000
vn -0.436171 -0.747154 0.501480
vn -0.264473 -0.449263 0.853328
vn 0.000000 0.000000 -0.999969
vn 0.000000 0.000000 1.000000
vn -0.792383 0.000000 0.609973
vn -0.792383 0.000000 -0.609973
vn -0.396191 -0.686239 -0.609973
vn -0.396191 -0.686239 0.609973
vn 0.396191 -0.686239 -0.609973
vn 0.396191 -0.686239 0.609973
vn 0.792383 0.000000 -0.609973
vn 0.792383 0.000000 0.609973
vn 0.396191 0.686239 -0.609973
vn 0.396191 0.686239 0.609973
vn -0.396191 0.686239 0.609973
vn -0.396191 0.686239 -0.609973
vn -0.544694 0.000000 0.838618
vn -0.272347 0.471725 0.838618
vn 0.272347 0.471725 0.838618
vn 0.544694 0.000000 0.838618
vn 0.272347 -0.471725 0.838618
vn -0.272347 -0.471725 0.838618
vn 0.609973 0.000000 0.792383
vn -0.609973 0.000000 0.792383
vn -0.609973 -0.686239 0.396191
vn 0.609973 -0.686239 0.396191
vn -0.609973 -0.686239 -0.396191
vn 0.609973 -0.686239 -0.396191
vn -0.609973 0.000000 -0.792383
vn 0.609973 0.000000 -0.792383
vn -0.609973 0.686239 -0.396191
vn 0.609973 0.686239 -0.396191
vn 0.609973 0.686239 0.396191
vn -0.609973 0.686239 0.396191
vn 0.838618 0.000000 -0.544694
vn 0.838618 -0.471725 -0.272347
vn -0.838618 0.000000 -0.544694
vn -0.838618 -0.471725 -0.272347
vn 0.838618 -0.471725 0.272347
vn 0.838618 0.000000 0.544694
vn 0.838618 0.471725 0.272347
vn 0.838618 0.471725 -0.272347
vn -0.838618 -0.471725 0.272347
vn -0.838618 0.000000 0.544694
vn -0.838618 0.471725 0.272347
vn -0.838618 0.471725 -0.272347
vn -0.983118 0.182972 0.000009
vn -0.983117 0.182978 0.000016
vn -0.983117 0.182980 0.000005
vn -0.983116 0.182985 0.000008
vn -0.983118 0.182975 0.000011
vn -0.983117 0.182980 0.000022
vn -0.983116 0.182985 -0.000013
vn -0.983116 0.182986 -0.000022
vn -0.983118 0.182974 0.000008
vn -0.983117 0.182979 0.000015
vn -0.983117 0.182979 0.000016
vn -0.983116 0.182982 0.000013
vn -0.983117 0.182979 0.000024
vn -0.983116 0.182984 -0.000018
vn -0.983116 0.182985 -0.000035
vn -0.983117 0.182978 0.000004
vn -0.983116 0.182986 0.000007
vn -0.983115 0.182986 0.000007
vn -0.983118 0.182975 -0.000005
vn -0.983115 0.182986 -0.000011
vn -0.983116 0.182986 -0.000011
vn -0.983117 0.182981 -0.000007
vn -0.983115 0.182987 -0.000012
vn -0.983118 0.182975 -0.000008
vn -0.983117 0.182980 -0.000017
vn -0.983116 0.182983 -0.000013
vn -0.983115 0.182987 -0.000023
vn -0.983116 0.182982 -0.000015
vn -0.983117 0.182979 -0.000027
vn -0.983117 0.182979 0.000005
vn -0.983115 0.182987 0.000008
vn -0.983116 0.182983 0.000021
vn -0.983115 0.182991 0.000011
vn -0.983116 0.182984 0.000030
vn -0.983115 0.182987 -0.000030
vn -0.983116 0.182983 0.000022
vn -0.983116 0.182984 0.000023
vn -0.983117 0.182976 0.000034
vn -0.983116 0.182985 -0.000050
vn -0.983114 0.182993 0.000010
vn -0.983114 0.182995 -0.000016
vn -0.983114 0.182992 -0.000016
vn -0.983116 0.182984 -0.000024
vn -0.983115 0.182990 -0.000031
vn -0.983117 0.182976 -0.000038
vn -0.983114 0.182993 0.000011
usemtl Mat2.002
s off
f 1/1/1 2/1/1 3/2/1 4/2/1
f 5/3/2 6/3/2 7/4/2 8/4/2
f 9/1/3 10/1/3 11/2/3 12/2/3
f 13/3/2 14/3/2 15/4/2 16/4/2
f 17/1/2 18/1/2 19/2/2 20/2/2
f 21/3/2 22/3/2 23/4/2 24/4/2
f 25/1/2 26/1/2 27/2/2 28/2/2
f 29/3/2 30/3/2 31/4/2 32/4/2
f 33/1/2 34/1/2 35/2/2 36/2/2
f 37/3/4 38/5/4 39/6/4 40/4/4
f 41/1/2 42/1/2 43/2/2 44/2/2
f 45/3/2 46/5/2 47/6/2 48/4/2
f 49/1/2 50/1/2 51/2/2 52/2/2
f 53/5/2 54/5/2 55/6/2 56/6/2
f 57/1/2 58/1/2 59/2/2 60/2/2
s 1
f 61/7/5 62/8/6 63/9/7 64/10/8
f 62/8/6 65/11/9 66/12/10 63/9/7
f 65/11/9 67/8/11 68/9/12 66/12/10
f 67/8/11 69/7/13 70/10/14 68/9/12
f 64/10/8 63/9/7 71/13/15 72/14/16
f 63/9/7 66/12/10 73/15/17 71/13/15
f 66/12/10 68/9/12 74/13/18 73/15/17
f 68/9/12 70/10/14 75/14/19 74/13/18
f 72/14/16 71/13/15 76/16/20 77/17/21
f 71/13/15 73/15/17 78/18/22 76/16/20
f 73/15/17 74/13/18 79/16/23 78/18/22
f 74/13/18 75/14/19 80/17/24 79/16/23
f 77/17/21 76/16/20 81/19/25 82/20/26
f 76/16/20 78/18/22 83/21/27 81/19/25
f 78/18/22 79/16/23 84/19/28 83/21/27
f 79/16/23 80/17/24 85/20/29 84/19/28
f 82/20/26 81/19/25 86/22/30 87/23/31
f 81/19/25 83/21/27 88/24/32 86/22/30
f 83/21/27 84/19/28 89/22/33 88/24/32
f 84/19/28 85/20/29 90/23/34 89/22/33
f 91/25/35 61/7/5 64/10/8
f 69/7/13 92/25/36 70/10/14
f 91/25/35 64/10/8 72/14/16
f 70/10/14 92/25/36 75/14/19
f 91/25/35 72/14/16 77/17/21
f 75/14/19 92/25/36 80/17/24
f 91/25/35 77/17/21 82/20/26
f 80/17/24 92/25/36 85/20/29
f 91/25/35 82/20/26 87/23/31
f 85/20/29 92/25/36 90/23/34
f 87/23/31 61/7/5 91/25/35
f 62/8/6 61/7/5 87/23/31 86/22/30
f 86/22/30 88/24/32 65/11/9 62/8/6
f 88/24/32 89/22/33 67/8/11 65/11/9
f 89/22/33 90/23/34 69/7/13 67/8/11
f 90/23/34 92/25/36 69/7/13
f 93/26/37 94/27/38 95/28/39 96/29/40
f 96/29/40 95/28/39 97/30/41 98/31/42
f 98/31/42 97/30/41 99/32/43 100/33/44
f 100/33/44 99/32/43 101/34/45 102/35/46
f 103/36/47 104/37/48 94/27/38 93/26/37
f 102/35/46 101/34/45 104/37/48 103/36/47
f 103/36/47 93/26/37 105/38/49 106/39/50
f 106/39/50 105/38/49 107/38/37 108/39/47
f 102/35/46 103/36/47 106/39/50 109/40/51
f 100/33/44 102/35/46 109/40/51 110/41/52
f 98/31/42 100/33/44 110/41/52 111/42/53
f 96/29/40 98/31/42 111/42/53 112/43/54
f 93/26/37 96/29/40 112/43/54 105/38/49
f 109/40/51 106/39/50 108/39/47 113/40/46
f 110/41/52 109/40/51 113/40/46 114/41/44
f 111/42/53 110/41/52 114/41/44 115/42/42
f 112/43/54 111/42/53 115/42/42 116/43/40
f 105/38/49 112/43/54 116/43/40 107/38/37
f 117/44/55 118/45/56 119/46/57 120/47/58
f 120/47/58 119/46/57 121/48/59 122/47/60
f 122/47/60 121/48/59 123/49/61 124/50/62
f 124/50/62 123/49/61 125/51/63 126/52/64
f 127/53/65 128/54/66 118/45/56 117/44/55
f 126/52/64 125/51/63 128/54/66 127/53/65
f 127/53/65 117/44/55 129/44/67 130/55/68
f 130/55/68 129/44/67 131/45/69 132/56/70
f 126/52/64 127/53/65 130/55/68 133/57/71
f 124/50/62 126/52/64 133/57/71 134/50/72
f 122/47/60 124/50/62 134/50/72 135/58/73
f 120/47/58 122/47/60 135/58/73 136/58/74
f 117/44/55 120/47/58 136/58/74 129/44/67
f 133/57/71 130/55/68 132/56/70 137/56/75
f 134/50/72 133/57/71 137/56/75 138/49/76
f 135/58/73 134/50/72 138/49/76 139/59/77
f 136/58/74 135/58/73 139/59/77 140/60/78
f 129/44/67 136/58/74 140/60/78 131/45/69
f 139/59/77 138/49/76 123/49/61 121/48/59
f 140/60/78 139/59/77 121/48/59 119/46/57
f 131/45/69 140/60/78 119/46/57 118/45/56
f 138/49/76 137/56/75 125/51/63 123/49/61
f 137/56/75 132/56/70 128/54/66 125/51/63
f 132/56/70 131/45/69 118/45/56 128/54/66
f 141/44/55 142/45/56 143/46/57 144/47/58
f 144/47/58 143/46/57 145/48/59 146/47/60
f 146/47/60 145/48/59 147/49/61 148/50/62
f 148/50/62 147/49/61 149/51/63 150/52/64
f 142/45/56 141/44/55 151/53/65 152/54/66
f 150/52/64 149/51/63 152/54/66 151/53/65
f 151/53/65 141/44/55 153/44/67 154/55/68
f 154/55/68 153/44/67 155/45/69 156/56/70
f 150/52/64 151/53/65 154/55/68 157/57/71
f 148/50/62 150/52/64 157/57/71 158/50/72
f 146/47/60 148/50/62 158/50/72 159/58/73
f 144/47/58 146/47/60 159/58/73 160/58/74
f 141/44/55 144/47/58 160/58/74 153/44/67
f 157/57/71 154/55/68 156/56/70 161/56/75
f 158/50/72 157/57/71 161/56/75 162/49/76
f 159/58/73 158/50/72 162/49/76 163/59/77
f 160/58/74 159/58/73 163/59/77 164/60/78
f 153/44/67 160/58/74 164/60/78 155/45/69
f 163/59/77 162/49/76 147/49/61 145/48/59
f 164/60/78 163/59/77 145/48/59 143/46/57
f 155/45/69 164/60/78 143/46/57 142/45/56
f 162/49/76 161/56/75 149/51/63 147/49/61
f 161/56/75 156/56/70 152/54/66 149/51/63
f 156/56/70 155/45/69 142/45/56 152/54/66
f 165/61/22 166/61/22 167/62/22 168/62/22
f 169/61/22 165/61/22 168/62/22 170/62/22
f 171/61/22 169/61/22 170/62/22 172/62/22
f 173/61/22 171/61/22 172/62/22 174/62/22
f 175/61/22 173/61/22 174/62/22 176/62/22
f 177/61/22 175/61/22 176/62/22 178/62/22
f 179/61/22 177/61/22 178/62/22 180/62/22
f 181/61/22 179/61/22 180/62/22 182/62/22
f 183/61/22 181/61/22 182/62/22 184/62/22
f 185/61/22 183/61/22 184/62/22 186/62/22
f 187/61/22 185/61/22 186/62/22 188/62/22
f 189/61/22 187/61/22 188/62/22 190/62/22
f 191/61/22 189/61/22 190/62/22 192/62/22
f 193/61/22 191/61/22 192/62/22 194/62/22
f 195/61/22 193/61/22 194/62/22 196/62/22
f 197/61/22 195/61/22 196/62/22 198/62/22
f 199/61/22 197/61/22 198/62/22 200/62/22
f 201/61/22 199/61/22 200/62/22 202/62/22
f 203/61/22 201/61/22 202/62/22 204/62/22
f 205/61/22 203/61/22 204/62/22 206/62/22
f 207/61/22 205/61/22 206/62/22 208/62/22
f 209/61/22 207/61/22 208/62/22 210/62/22
f 211/61/22 209/61/22 210/62/22 212/62/22
f 213/61/22 211/61/22 212/62/22 214/62/22
f 215/61/22 213/61/22 214/62/22 216/62/22
f 217/61/22 215/61/22 216/62/22 218/62/22
f 219/61/22 217/61/22 218/62/22 220/62/22
f 221/61/22 219/61/22 220/62/22 222/62/22
f 223/61/22 221/61/22 222/62/22 224/62/22
f 225/61/22 223/61/22 224/62/22 226/62/22
f 227/61/22 225/61/22 226/62/22 228/62/22
f 1/1/22 165/61/22 169/61/22 2/1/22
f 5/3/22 171/61/22 173/61/22 6/3/22
f 9/1/22 175/61/22 177/61/22 10/1/22
f 13/3/22 179/61/22 181/61/22 14/3/22
f 17/1/22 183/61/22 185/61/22 18/1/22
f 21/3/22 187/61/22 189/61/22 22/3/22
f 25/1/22 191/61/22 193/61/22 26/1/22
f 29/3/22 195/61/22 197/61/22 30/3/22
f 33/1/22 199/61/22 201/61/22 34/1/22
f 37/3/22 203/61/22 205/61/22 38/5/22
f 41/1/22 207/61/22 209/61/22 42/1/22
f 45/3/22 211/61/22 213/61/22 46/5/22
f 49/1/22 215/61/22 217/61/22 50/1/22
f 53/5/22 219/61/22 221/61/22 54/5/22
f 57/1/22 223/61/22 225/61/22 58/1/22
f 4/2/79 3/2/79 229/63/80 230/64/80
f 8/4/81 7/4/81 231/65/82 232/65/82
f 12/2/83 11/2/83 233/66/84 234/64/84
f 16/4/85 15/4/85 235/67/86 236/68/86
f 20/2/87 19/2/87 237/63/88 238/69/88
f 24/4/87 23/4/87 239/65/89 240/67/89
f 28/2/90 27/2/90 241/66/91 242/64/91
f 32/4/92 31/4/92 243/70/93 244/71/93
f 36/2/94 35/2/94 245/63/95 246/72/96
f 40/4/97 39/6/97 247/67/98 248/65/99
f 44/2/100 43/2/100 249/63/101 250/73/101
f 48/4/102 47/6/102 251/67/103 252/65/103
f 52/2/104 51/2/104 253/64/105 254/73/105
f 56/6/106 55/6/106 255/70/107 256/68/107
f 60/2/108 59/2/108 257/63/109 258/72/109
f 230/64/80 229/63/80 259/74/110 260/75/110
f 232/65/82 231/65/82 261/76/111 262/77/111
f 234/64/84 233/66/84 263/78/112 264/79/112
f 236/68/86 235/67/86 265/80/113 266/81/113
f 238/69/88 237/63/88 267/74/114 268/75/114
f 240/67/89 239/65/89 269/82/115 270/83/115
f 242/64/91 241/66/91 271/78/116 272/79/116
f 244/71/93 243/70/93 273/84/117 274/85/117
f 246/72/96 245/63/95 275/74/118 276/86/118
f 248/65/99 247/67/98 277/87/119 278/88/119
f 250/73/101 249/63/101 279/89/120 280/90/120
f 252/65/103 251/67/103 281/91/121 282/92/121
f 254/73/105 253/64/105 283/93/122 284/94/122
f 256/68/107 255/70/107 285/95/123 286/96/123
f 258/72/109 257/63/109 287/74/124 288/86/124
f 95/28/39 94/27/38 104/37/48 101/34/45 99/32/43 97/30/41
f 115/42/42 114/41/44 113/40/46 108/39/47 107/38/37 116/43/40
